<svg xmlns="http://www.w3.org/2000/svg" width="1267.346" height="642.022" viewBox="0 0 1267.346 642.022"><defs><style>.a{fill:#91b551;stroke:#fff;}</style></defs><g transform="translate(0.251 0.252)"><path class="a" d="M51.4,2.81l2,1.823,2.558-.416,1.311.56,4.157,3.741,3.837-.72,1.567.5,2.047,1.2,1.311.256,1.967-.016,1.183.144,3.054.512,1.775-.064,1.343-.863,1.359-1.119.911-.528,3.646,2.334,3.805.5,1.823,1.135,1.6,2.27,1.935.831,2.031.72,3.342.608,4.621,1.663,1.5.128,2.878-1.583,4.685-5.644,1.519-1.007,1.679-.336,1.231-.448,1.3-.767,1.887-1.455,2,.032,1.135.272,1.615,1.455,1.023,1.647.975,2,1.071.911,1.711.688,1.567.368,3.246.144,2.222,1.039,2.83,1.551,1.887,1.343,1.711,1.711,2.286,1.247,3.853,1.711,2.27,1.247,2.478,1.823,6.651-.112,2.27.208,2.446,1.5.975.975.24,1.311-.672,2.43.112.767.815,1.007,1.695.608,1.727,1.087,1.407,1.343,1.935,4.4,2.51.879,2.958-.24,1.695-.576,1.071-1.407.783-.608,1.167-.192,1.391.544,2.031,1.679,2.127,1.375,2.159,1.039,1.215,1.631.991,1.727.192,3.166.432.4,2.99,1.775,5.42,1.3,2.127-.1.943-.831.592-1.455.863-1.2,1.071-.991,1.183-.1,2.494.192,2.382.783,2.334,1.2,2.8.831,4.205,1.615L228.255,55l3.1,1.6,3.246,2.382,5.884,1.135,1.487.672,1.759,1.6,2,2.782,2.318-.128,1.423.1-.048.352.416-.815L251.5,63.7l1.519-1.455,2.079-3.358,1.327-.863.831.224,1.087.576h.7l1.967-.879,1.631-.208,1.183.336,2.35,2.159.5,11.256.5.975.943.512,1.359.3,4.461.72,1.263-.08,2.015.847.959,1.055.656,1.055,1.327,1.391,1.791,1.343,4.125,2.047,3.709,2.414,1.023,1.263.672,1.839,3.582,1.359,1.743,2.111,3.134.544,4.493,2.27,1.455.4,1.9-.256,1.743-1.455L310.95,92l.815.3,4.941,2.638.736.528,1.471.352,1.439.064,1.567-.831L323.2,93.6l.959-1.935.688-.4.911.048,2.27,1.487,2.814,2.926,3.55,1.023,2.27.208,3.965,1.839,1.007-.016,2-.448,4.077-1.359,2.079-1.263.879-1.839-1.1-2.43-.224-1.247.384-1.279.624-.943,1.071-.32,1.183.224,2.334,2.4,4.989,2.19,3.789.352,1.055.432.736.847,1.455,2.446.943.72,1.471-.128,2.43-1.215,3.933-.224,3.182.336,2.35,2.111,1.615,2.43,1.807.56,1.775.16,4.413-2.67,4.317-.24,1.695-.56,4.509-3.406,1.631-.112,1.823.592h0l-.544,1.231-.464,1.855-1.567,3.2-.416,1.615-1.615,3.438-.208.991-.016,6.444,1.775,3.614.16,1.535-.751,1.855-.448,2.686-1.6,3.31-.32,1.423-3.054,6.284-.4.624-2.654,2.734-1.5,1.263-1.807,1.039-.831.767-.528.767-.863,1.807-.272.975-.224,1.919-.736,1.519-.384.448-.656.288-1.919.272-1.519.544-1.359.16-3.55.08-2.446.8-3.134.272-5.26,2.526-2.814.5-1.679.624-2.878.224-.9.224-3.917,1.823-.56.512-.336.688.08.879.64,1.695.272,2.095.959,1.647.352.272.672.16,2.974.064.736.432.256,1.2-.16,1.007-.64,1.455-.224,1.039v6.044l.448,1.087.656.656.943.464.64.767.24.736.128,2.878.272.911,1.391,1.439.256.815-.112,1.087-1.087,2.35-1.055,1.439-1.647.624-2.622,1.3-1.119,1.183-.656,1.2-1.055,1.343-.256.72.272.767,2.3,2.3v1.039l.9,2.558.192,4.6.144.767.576,1.183.128.767.064,11.064.16,1.855.624,1.423.416,1.631.64,1.087,3.773,3.869.831,1.5,1.055,1.375.48.991.16,1.167-.032,4.061-.128.9-.624,1.535-.416,2.59-.592,1.455-.416,1.615-.959,1.071-1.791.927-3.2,1.087-1.775,2.175-1.423,2.926-2.494,2.894-.911,1.631-3.885,4-1.359,2.19-2.782,2.75-1.439.767L340.8,272.5l-1.583.863-2.8,2.35-1.615.863-1.663,1.279-12.008,5.852-2.974.464-1.391.56-1.439.32-2.27,1.007-.7.512-.8.879-1.279,2.079-3.6,3.677-.528.7-.528,1.071-1.2,1.375-4.637,2.35-4.909,2.286-3.933,2.127h0l-.464-1.759-.208-2.127-.48-2.334-.416-2.686-.48-3.326-.72-6.444-.112-2.063-.368-2.334-.256-3.406-.208-1.695-1.583-10.057-.3-1.567-.48-1.839-.32-.783-.416-2.334-.256-1.215-.208-1.359-.687-1.551-.48-1.631-1.087-3.9-.432-3.2-4.6-13.783-1.263-3.693-1.471-2.974-.416-.927-.32-.991-.624-1.215-1.471-2.494-1.519-1.695-.736-.08-1.935.432-.16.064-.464-1.135-.64-.5-.624-1.071-1.2-1.487-2.254-1.359-2.894-.927-1.407.08h-.847l-1.151-.352-.831-.224-.943-.208-.64-.432-1.519-.64-.783-.208-.831-.224-.847-.064-.528.208h-.512l-1.263-.208-.831-.352-1.167-.863-.943-.847-1.679-1.279-1.455-.352-1.055-.432-1.311-.432-.943-.208-2.718-.719-1.1-.352-1.1-.288-.991-.64-2-.56-2.782-.144-1.823.56-.48.224-.9.7-.991.863-.943.5h-.9l-.736-.192-.831-.176L217.35,204l-1.519-.224-.576-.128-.831-.863-.16-.352-.576-1.5-.112-1.135-.3-.432-.48-.272-.688-.927-.576-.719-1.2-.847-.256-.432-.112-.847-1.263-1.567-1.1-.8-.464-.847-.688-2.143-.1-1.711-.32-1.983-.464-1.711-.368-2.494-.368-3.07L203.68,172.5l-.592-2.926-.672-3.214-.688-1.775-.831-1.855-.368-1.423-.368-.8-.688-1.423-.368-.64-.576-.863-.576-.927-.368-1.279-.576-.927-1.359-1.3-.9-.847-1.839-.719-1.455.08-.32.56-1.2.432-2.366-.352-1.519.064L185,153.523l-.368.352-.736.783-.464.512-.783.783-1.055.288-.9-.368-.352-.288-.32-.352-.576-1.855-.943-1.007L177.09,150.8l-.464-.576-1.471-.7-.208-.288-.528-1.439-.464-1.215-.272-.56-1.727-2.222-.783-.719-1.791-1.055-.624-1.215-.831-.368-.432-1.135-.416-.719-.624-1.007-1.007-1.711-1.151-1.423-.576-.656-2.254-1.919-1.1-.368-2.67-.144-1.839-.927-2.51-.576-2.3-.064-.528-.288h-.688l-.72.208-.9.512h-.528l-.624-.224-.368-.352-1.423-.352-4.717-.656-3.566.08-1.039.352-1.423.144H133.9l-2.206-.288-.9-.208h-.735l-.576.288-1.151-.08-1.247-.208-2.782-1.215-1.951-1.583-1.823-.416-.688-.288h-.576l-2,.991-3.821,1.071-2.3.512-2.095.144-1.215-.08-.576-.208-.783-.512-2.206-2.638-.943-1.855-.783-1.007-1.407-1.855-.368-.863-.688-1.071-.528-.432-1.2-.783-.624-.656-.592-.64-.831-.576-1.2-.5-.847-.08h-.943l-.735.08-.416.352h-.831l-1.423-.064-.624-.288h-.528l-.528.144-.528.432-.416.288-.416.208-.783-.863-.32-.783-.688-.576-1.263-.719-.512-.288-.48-.208h-.72l-.432.208-1.359-.56-.576-.432-.831-.927-.688-.368-.416-.064-.735-.288-1.007-.863-.352-.576-.64-.432-2.047-1.071-1.679-.144-2.3.576-1.727,1.007-.688.576-.672.64-.943,1.3-.528.64-.943.863.1.64.064.432-.272.5-.208.224-.624-.144-1.055-.863-.735-1.151-.879-.576-1.007-.927-.72-.64-1.423-2.079-.624-.5H54.9l-.576-.288-1.215-1.3-.624-.72-.416-.352-1.215-1.151-.256-.576-.688-3.582-.624-9.5-.735-6.348L47.5,78.07l-.831-3.15-.783-2.366L45.1,70.891l-.735-1.071-.528-.5-1.2-.72-1.631-.656-.783-.144-.416-.064-.48-.368-.464-.576-1.007-.5-.831-.432-3.1-.5-1.039-.432-2.414-.576L28.632,63.5,26.9,62.353l-3.773-3.086-1.151-.576-1.887.064-.208-.208-.048-.288L17.375,56.6l-1.263-.783-.272-.144-2.51-1.647-1.311-.368H9.669L7.3,53.511l-3.086-.72-1.743-.5-1.039-.368-1.023.08-.16-3.582.911-4.141-.24-2.015.416-1.407.911-1.231L5.5,33.461l.528-1.871.831-4.653L7.99,25.626l2.143-2.846.192-1.5.608-1.359,1.247-1.071,4-4.157.64-1.519-.064-1.135-.991-2.686.048-1.919.64-1.663.927-1.135.911-.208,3.39.767,1.887-.3,2.35-.911L28.664,2.7l2.718-.624,1.247.016,1.855.7,3.693-.064L39.552,2.2l1.375-1.1L42.734.443,45.053.252,47.8.683Z" transform="translate(0 0)"/><path class="a" d="M223.61,269.708l.5-.336,1.407.112,1.007.144,1.455.608.783.16,9.849.08,1.055.208,1.471.624.8.144,8.218.048,1.663.24,4.157,1.983.911,1.311L257,276.2l-.112,4.845.144.7.448.56.72.192,1.279.048,5.133-.1,1.471.32.8.544.56.608,1.151,1.9.7.863.8.512,1.919.56.943.448,3.134.512,1.311.7.464.4.272.863.144,1.967.56.751.656.112.831-.256,5.053-2.526,1.583-.352,1.919-.719.8-.1,6.556.048,1.327.048.767.224,4.029,1.9.943.959,1.023,1.919.863,2.43,2.223-.656,1.439-.624,3.614-.384,1.215-.512,1.359-.32,9.657.16,4.541-4.349,3.677-1.871,2.782-2.334.7-.24.751-.08,4.173.016,1.263.144.672.32,2.766,2.638.751.991,2.334,4.813.767.783.672.256.751.08,6.54.048h0l.448,1.855,2.606,5.132.192.72.048,1.039.032,5.468-.176,1.3-.624,1.023-2.718,2.686-.528,1.087-.08,2.4.224.927.656,1.359.288,1.327,2.206,4.429,2.414,2.766.751,1.359.672.56,3.07,1.455,1.359,1.2,1.983,3.821,3.55,3.534.608.752.384.9.3,2.318.56,1.151.768,2.095,1.311,4.3h0l-.975.56-.8,1.039-.352,1.1.128,2.862-.224,1.5-2.334,4.781.576.8.24,2.814-1.263.528-1.2,1.087-1.423,2.766-2.462-.208-.8.688-.224,1.327-.751.735-1.375.48-.576.576-1.135,2.638,2.031,3.438.464,2-.048.927-.512.8-1.263.064-1.727-1.423-1.487.064-4.765,1.455-4.589-.256-1.439-.624-1.839-1.823-2.83-1.759-1.327-2.35-4.189.08-2.686.432-1.679-.975-1.9-1.135-2.174.192-1.263.288-1.663-.672-1.391-1.711-1.391-.847-1.375-.448-2.718-2.111-1.327-.272-3.326.544-2.7-1.023-7.627.352-1.039.528-1.055-3.086-.576-.576-.975-.336-1.167-1.247-2.35-.1-3.661,1.407-1.215.016-1.6.24-1.439.48-1.711.128-.368-1.775-1.263-.224-1.823,1.119-2.83-.608-1.535.592-4.8,3.486-1.023.24-1.279-.384-4.333-2.366-1.551-.208-2.526.032-.8-.112-.592-1.023-.064-1.375-2.27-2.286-4.125.176-1.471,2.015-4.621,3.214-.911.368-2,.48-.783,2.19-1.311,1.167-.1,1.951-1.967,2.3-1.3,2.271-5.037,1.615-.384,1.327-1.615,2.3-2.574,1.423-.863-.032-1.519-2-.767-1.535-2.079-.943-1.839-.5-.48-1.775-1.215-.672-2.542-1.119-2.606-1.279-4.813.176-2.43-.528-.4-.8.432-1.215.911-.7.16-.975-.528-1.135-1.855-.847-6.22,2.734-2.286.56-1.663.256-1.679-.72-4.749-3.15-2.446-2.254-4.749-1.759-.767-1.263-1.439-.544-2.526-.192-1.791-.831.16-1.871.208-.352.368-.416.1-.911.32-.288.416-.064.368-.272.64-.56.368-1.615.256-2.159.16-2.926-.048-2.446.512-2.942.943-2.782,1.007-1.407.672-.624.32-.56.464-.975.9-1.183.783-.64,1.055-1.391.368-.7,1.631-2.031,1.823-1.743,1.727-1.535.8-.5.3-.128h.688l.624.272v.7l.208.624.432,1.055,1.087-.208.688.208-.1-.5.1-.48.48-.432.3.56.847.08.831-.56.272-.208.576-.768.464-.5.847-1.407,1.039-1.1,1.151-1.679,1.1-1.967.783-1.391.432-.768.256-.911.368-.288.624-.064.416-.911.736-1.055.688-1.887.688-1.6,1.935-5.388,1.311-4.765.736-.416.368-.432.512-1.263.847-1.183,1.2-3.214.224-1.055,1.3-3.582.368-1.535.9-6.172.208-3.438.272-3.917-.16-1.471-1.007-4.349-.048-1.343-.208-1.039Z" transform="translate(108.653 161.177)"/><path class="a" d="M209.72,235.823l.943-.592.672-.192,2.159-.32,1.439-.56,1.007-.144,12.807.112.975-.112,2.254-.672,3.534-.4,1.455-.56,2.83-.5,2.958-1.359,1.055-.32,9.066.016,1.071-.192,1.215-.528,3.869-.656,2.318,1.263,2.686.4,1.471.608,2.606.416,1.423.608,1.711.448,1.311,1.039,4.6,4.637,1.471.959,2.606.368,1.215.56.751.144,8.41.1,1.775.208,1.439.672,1.551.352,1.743.959.48.672.56,1.519h0l-1.567.847-1.183.863-1.455,1.551-.272.448-.176.7-.1,2.366.256.751,2.015,4,.927.927,1.791.9.72.208,5.132.1,1.3.208,2.223,1.135,1.775,1.343.975.32.783.08h1.023l1.119-.352.927-1.375.608-1.423.751-1.247.272-.3.672-.272,1.567-.08,4.717.128.783.176,1.423.608,1.663.3,1.071.368,2.782,5.6.384,2.542.624,1.423.448,1.823,1.055,2.222,1.007,1.551,1.1.32h3.134l1.247.144,4.493,2.143,2.446,1.343,4.141,3.917.688.336,1.391.3,1.455.608,2.015.576.991.767,2.19,2.143,1.071.64,1.5.176,9.1-.064,1.343.1.991.336.767.751,1.807,2.718.32,1.039.064,13.559.288,1.567.576,1.455.224,3.39h0l-5.1-.048-.975.208-.911.56-1.3,1.231-.783,1.023-.943,2.015-.288,2.3-.208.7-.863,1.391-.56.352-1.967.3-1.695.656h-1.167l-1.135-.5-2.318-2.047-.735-.288-.8-.1h-3.55l-1.039.224-1.183.544-.5.08-3.693.16h0l-6.54-.048-.751-.08-.672-.256-.767-.783-2.334-4.813-.751-.991-2.766-2.638-.672-.32-1.263-.144-4.173-.016-.751.08-.7.24-2.782,2.334-3.677,1.871L313.7,319.03l-9.657-.16-1.359.32-1.215.512-3.614.384-1.439.624-2.223.656-.863-2.43-1.023-1.919-.943-.959-4.029-1.9-.767-.224-1.327-.048-6.556-.048-.8.1-1.919.72L274.38,315l-5.053,2.526-.831.256-.656-.112-.56-.751-.144-1.967-.272-.863-.464-.4-1.311-.7-3.134-.512-.943-.448-1.919-.56-.8-.512-.7-.863-1.151-1.9-.56-.608-.8-.544-1.471-.32-5.132.1-1.279-.048-.72-.192-.448-.56-.144-.7.112-4.845-.112-1.167-.911-1.311-4.157-1.983-1.663-.24-8.218-.048-.8-.144-1.471-.624-1.055-.208-9.849-.08-.783-.16-1.455-.608-1.007-.144-1.407-.112-.5.336h0l-.112-1.359-.3-1.551-.272-.624-.368-5.484-.3-4.989-.736-6.108-.064-3.661.112-1.327-.48-1.055-.576-2.526.064-.911.3-.352.32-1.967-.208-.08-.416.991-.16,1.119-.368.144-.991-1.551-.32-1.119-.9-.288-.368-.911-.672-.991-.32-.7-1.311-3.022-.416-1.759-1.727-3.022-.432-.767-.1-.7-.576-.911-.272-.72-.624-.767v-.416l.256-.5h.432l.368.064-.112-.7.048-.208.272-.208h.256v.7l.528,1.327.16.5v.847l.368.5.256.7v.352l-.208.272-.16.783.688.416.368.08.144-.352.592.128.464,1.2h.208l.368-.624.208-.224v-.48l-.3-.576-.112-.272v-.352l.208-.432.368.08.208-.208-.16-.352-.416-.08-.048-.208.208-.272.624-.368.208-.208V247.7l-.208-.352-.736.064-.3-.128-.208-.7-.208-.7-1.055-.224-.208-.48-.64-.144-.144-.56-.432.128-.208-.48.32-.576h.576l.688.288.512.208.592-.272.3-.144.368-.144,1.423-.5,1.039-.5h.9l.528-.064.368-.208.368-.5.256-.7-.208-.991v-1.2l.208-.416.48-.144.368-.144.624-.208.464-.208v-.288l-.512-.416-.432-.144-.624-.144-.256-.064-.368-.288Z" transform="translate(119.649 136.91)"/><path class="a" d="M336.544,171.024l2.047,2.43.448,1.2-.016,2.35-.192.736-.7,1.663L338,182.248l.272,1.5,1.439,1.967.3.959.048,4.685-.192,2.27,2.031.256,1.9-.144,1.423-.608,1.823-.464,1.2-.528,1.839-.432,1.823-.847,1.007-.847,1.711-3.358.5-.448.672-.272,1.935.048,1.871.783,2.4.336.831.48,2.031,1.855.368.256.991.272H367.8l1.967-.719L371.48,189l.416-.176.352-.4.5-2.542.672-1.967.32-.576.783-.256.672.048,3.566,1.439.3.288.879,1.567,1.055,1.087.432.272,2.414.448.272.16.1.256,2.27.7,2.031,1.455,1.647.943,8.49,8.346.879,1.2.464,1.807.608,1.423.272,4.4.608,1.407.336,1.231.24.352.576.288.672.08,4.509-.016,1.151.272L413,214.578l2.4,2.111,1.839,1.071L419,219.407l.735.448h.448l.384-.176,1.9-1.743.847-.464,3.166-.24,1.647-.672.943-.176,1.743.032,1.455.4,1.935-1.2,2.862-.416,2.222-1.071,1.807-1.375,1.439-.751,2.51-2.318,1.023-1.3,1.375-2.83.56-.656,6.763-3.406,1.631-1.535.144-.7.208-.336.911-.4,2.91-.016,3.118.208,2.238-.256,1.663-.656,1.023-.176,9.641.016,1.3.224,1.2.56,1.6.4,1.663.688,3.118.3,1.951.751,2.079.176,1.3-.144,1.439-.624,1.823-.464,1.215-.528,2.59-.4,1.695-.688,1.839-.1.991.256,9.066,4.557,2.59.416,1.9.736,2.558.24h0l2.846,2.814,1.231.863,2.606.416,1.423.608.736.16,4.685.208,1.647.688.943.16,1.151-.208,3.821-1.9,2.974-2.494,2.478-1.167,1.551-.16,2.382.08.943.256,1.311.736.464.416.991,1.647.959,2.015.144.943-.16.927-.56,1.167-.464,1.807-.576,1.183-.448,1.807-1.519,2.958-.224.656-.064,1.2.128.959.656,1.407.544,1.663-2.015.384-1.679.656-2.59.384-2.031.975-1.759,1.311-.687.32-1.311.16-4.349-.048-1.231.3-.831.608-1.1,1.119-.64.8-.783,1.487-1.6,1.695-1.039.751-2.862,1.327-.815.736-1.1,2.159-.384,1.6-.64,1.391-.128.688.128,1.167.576,1.167.48,1.791.64,1.423.144,1.231-.032,5.372-.208.959-.672,1.631-.208,2.7-3.853,1.871-.943.911-.975,1.983-.432,1.823-.56,1.167-.368,2.59-.624,1.407-.528,2-1.023,2-2.27,2.542-1.167,1.951-1.391,1.167-6.923,3.294-1.1.8-.176,1.663-.608,1.407-.208,1.263.032,13.671-.16,1.535-.64.911-1.807,1.055-3.166,2.83-1.487.8-.831.624-1.935,1.855-.975,1.215-1.007,1.983L488.7,319.9l.112,1.807.751,1.887.176,1.679h0l-1.711.144-1.647.656-2.159.24-.672.192-2.238,1.135-2.782,2.606-1.023.688-2.622.384-1.647.64-2.159.24-.672.192-2.238,1.119-2.574,2.238-4.061,1.967-.672.192-2.382.3-1.2.544-1.839.432-1.2.544-1.839.432-1.2.544-1.615.352-1.423.624-1.823.416-11.288,5.484-2.526,1.087-2.382-1.1-2.063-1.167-1.1.24-2.382.208-2.478.8-6.364.08-2.718.847-5.132.08-1.007.176-1.711.624-2.846.208-.735.24-.64.432-2.111,2.095-2.27.1-1.615-.16-.432-.144-4.813-2.43-.7-.208-1.327-.128-4.989.048-1.343-.1-.991-.256-3.23-1.567-1.071-.16h-3.55l-1.119.24-6,2.862-1.039.783-2.494,2.382-.672.4-2.111.256-1.935-.032-1.615-.224-3.677-1.695-1.2-.144-2.063.032-1.023-.751-1.135-1.935-3.246-3.326h0l-.224-3.39-.576-1.455-.288-1.567-.064-13.559-.32-1.039-1.807-2.718-.767-.751-.991-.336-1.343-.1-9.1.064-1.5-.176-1.071-.64-2.19-2.143-.991-.767-2.015-.576-1.455-.608-1.391-.3-.687-.336-4.141-3.917-2.446-1.343-4.493-2.143-1.247-.144h-3.134l-1.1-.32-1.007-1.551-1.055-2.222-.448-1.823-.624-1.423-.384-2.542-2.782-5.6-1.071-.368-1.663-.3-1.423-.608-.783-.176-4.717-.128-1.567.08-.672.272-.272.3-.751,1.247-.608,1.423-.927,1.375-1.119.352h-1.023l-.783-.08-.975-.32-1.775-1.343-2.222-1.135-1.3-.208-5.132-.1-.72-.208-1.791-.9-.927-.927-2.015-4-.256-.751.1-2.366.176-.7.272-.448,1.455-1.551,1.183-.863,1.567-.847h0l1.439-.24,1.1.032.783.16,1.439.608,1.343.016.751-.32,1.519-1.1,1.023-.56.576-.512.288-.448.208-.783.16-2.446.72-1.967.176-1.935-.016-17.94-.192-1.359-.751-1.887.144-.959.528-.464,2.4-.767,2.19-.32.544-.432.256-.911.016-1.583-.144-1.631-.336-1.215,1.727-3.23,1.647-2.51,1.775-2.207,1.647-3.246,1.5-1.935,4.685-9.226,2.079-2.063,1.663-.9.783-.608L301,211.284l1.183-1.311,1.071-1.839,2.51-2.542.608-.783.24-.687.1-.975-.064-10.7.08-1.231.256-.656.624-.624,3.022-1.407.528-.4.384-.544.24-1.263-.016-4.813.288-.975,1.183-1.263,1.871-1.023.927-.831.592-.8,1.343-2.814.416-.512.544-.384,1.551-.24,7.355.08,1.231-.336,1.567-1.167.879-.384,2.286-.112Z" transform="translate(155.002 102.113)"/><path class="a" d="M896.736,531.9l-3.853-.1-1.519,1.3-2.143-.224-3.006-3.438-4.317-1.727-4.509-1.071-3.661,2.59-5.372,7.739-2.59,4.957-2.574.64-4.3-5.708-.863-5.372-4.3-1.727-4.093,2.159h-3.438l-5.9-7.435-2.718-3.965-6.012-7.323-5.6-5.164-10.984-.432-7.531.863-4.3-2.143h-3.006l-.975,1.151-3.534.943-1.327,4.877-2.574,1.439-3.038-1.135-2.334-.432-4.861.272-4.221-.448-1.743.512-3.725.608-6.108-.4-4.877-2.75-3.981-3.582-4.381-2.334-3.2-1.487L747,502.96l-4.525.176-2.782-.544-3.5-1.327-3.853-2.99-4.093-2.047-5.308-3.614-4.973-7-1.983-2.926-.751-1.359.048-.847.56-1.087,1.023-.224.975-1.423.911-2.063,1.183-.911.783-1.071.832-.384.975-.208,2.91-.1.991-.32.432-.672-.256-.768-2.894-2.846-1.151-1.343-1.087-.08-3.965,2.462-1.391-.144-1.871-.64-5.052-3.054-2.11-.512-3.342.288-3.422.991-3.15-1.231-1.055-.8-1.007-1.2-.64-3.741-.9-2.079-2.526-1.167-6.284-1.535-3.63-1.263-1.695-1.023-1.055-1.007-3.15-3.773-1.359-.735-1.487-.208h-1.487l-.863-.192-2.974,3.646-1.535,1.439-1.119.719-1.439.192-1.439-.112-4.733-2.958-4.093-2.99-2.846-3.006h0l-.528-1.951-3.534-6.843.016-.9,1.359-2.782-.08-.592-.672-.863-2.99-2.862-1.2-.735-1.615-.368-1.663-.672-4.685-.176-2.4-.815-2.446-.144-.927-.192-.56-.384-.416-.5-1.983-3.949-.176-.927.032-1.2.176-.687.656-1.359.048-1.151-.176-.656-2.59-4.877-.144-.687.08-.943.464-.847,2.686-2.67,1.247-2,2.286-2.51,1.007-1.951.112-.64-.128-.656-.512-1.151-.352-2.334-.624-1.407-.464-1.791-.544-1.167-.4-2.558-.751-1.871-.08-4.829-.144-1.231-2.686-5.372-.432-1.807-.528-1.183-.336-1.215-.24-.352-.384-.224-1.407-.16-4.173.112-.72.176-1.167.56-.7.144-.943-.08-.608-.32-.576-.656-1.471-3.022-2.238-2.526-.815-1.455-1.359-1.743-2.782-5.436-2.143-2.206-1.455-1.055h0v-2.862l-.128-1.183-1.311-2.638-1.263-1.215-1.471-.783-1.775-1.343-2.526-.975,9.114-8.81.416-.192.7-.064,2.207,1.007,1.311,1.055,2.766,2.766,1.119.863,2.047.959,2.622.4,1.615.64.879-.112,3.2-1.535,3.182-.224,1.871-.72,3.1-.384-.56-1.663-1.279-2.414-3.086-3.182-1.615-1.247-1.823-.48-1.663-.656-3.709-.192-2.366-.815-3.166-.288-1.663-.672-2.638-.4L603,320.829l-1.247-.352-.48-.4-.4-2.159-.608-1.407-.16-.7-.08-1.455.112-1.215.384-.879,1.215-1.519.815-1.407,2.127-2.3.208-.416.064-.687-1.615-3.326-.448-1.823-.975-2-.767-1.007-2.206-2.143-.432-.751.1-.751,1.919-3.821.128-.751-.72-1.743-2.526-4.685-.208-.863.08-.448.352-.624,2.7-2.654.624-1.055.24-4.125.672-1.615.208-.959.128-5.372.736-1.871.336-2.35.592-1.407.48-1.791.9-1.215,3.182-3.086.64-1.071.16-1.487-.064-5.884.08-.736.256-.7.783-.975,5.372-5.292.943-1.647,1.343-1.759.927-1.519.767-.464,1.583-.368,1.2-.512,2.638-.352,1.439-.592,1.807-.448.831-.687,2.031-3.949.272-1.151v-.975l-.128-.7-.624-1.423-.384-2.222-.72-1.455-.368-1.119-1.519-2.974-.208-.672-.128-5.644.144-1.5.48-.863.512-.544.783-.592,1.679-.9,3.022-2.75,1.775-1.023.624-.911.176-1.439-.08-8.17-.192-1.007-.56-1.183-.416-1.583-.688-1.615L634.6,181.4l3.118-6.2,1.487-1.951L640.832,170l2.318-2.574.72-1.407.911-1.071h0l1.631,3.534,2.031,2.4,1.711,1.455,1.615.688,1.855.24,2.063-.48,2.127-.863L661.7,170.8l1.311-.656,1.231-.256,4.749-.32,4.717.544,5.9.192,4.8-.256,5.037-2.127,3.214-.08,2.446.432,1.439.688,2.654,2.83,1.983,1.759,5.276,3.038,5.708,2.35,9.146,5.516.7.192,5.436-.464,1.935.08,1.759,1.215,1.343,1.743.8,2.127.56,2.478-.1,2.686-.32,2.382-1.247,2.462-6.6,10.393-.64,1.839-.3,1.631.9,4.861-.08,2.27-1.167,3.342.56.767,2.318,2.015.719.943.3,2.814-.672,1.023-1.263,1.007-4.013,1.727-2.111.4-1.231.48-2.334-.016-2.015.975-1.279-.048-1.071-1.087-1.135-.608-1.455-.176-1.119.368-.624,1.215-2.59,8.346-1.919,5.18-1.391,3.15.432,1.119.783.783,1.391.336.975.432,3.246,3.486,4.317,1.359,4.877,3.246,1.615.688,1.231,1.087,4.093,2.638,2.366,2.063.847,2.574,1.087.272,1.247.863,1.407,1.439.767,1.247,2.846,1.551,2.078.352,1.519,1.279,1.151.512,1.791.224,3.566-.847,2.43.144,4.189,1.471,2.207,1.247,4.221,3.63.24,1.631-.048,2.91.272,2.031.751,1.775,2.158,2.574.48,2.8.783.783,1.695,1.1,1.263.272,1.359-.863,3.422-2.958,1.231-.176,1.6.624,1.951.48,1.423-.863,1.871-.464.8.32.544,1.071.368,2.334.32.815.911.384,1.167-.176,1.071-.544,1.135-1.055,2.191-2.83,1.439.528,1.007.959.416,4.077.448,1.759.911,1.887,1.887,2.111,2.11,1.183,1.055-.32.432-.847.448-4.093.863-1.359.767-.32.975.32,1.071.688,6.06,6.556,2.127.368,2.846-.112,2.158-.608,4.349-2.91,1.823-.384,1.023.272.831.911.688,1.871,1.855,2.51,5.756,5.34,1.119,2.126,1.663.48.719.72.32.767-.224,1.2.1.464,3.006.24.767-.656.4-1.135.208-2.206.688-1.007,1.039-.08.911.448,1.247,1.855,1.071.624.9-.608,1.855-2.638.831-.544.863.032.384.592.368,2.4-.224,2.414.656,3.454.528,1.3,5.084,3.1-.656,7.035-.943,3.086-2.031,4.125-1.1,1.519-3.086,3.166-2.942,1.5-4.109,2.766-8.218,7.4-9.465,1.967-8.41,3.07-4.973,6.492,2.686,13.783,2.67,8.026.384,11.864,3.438,4.205,5.356-5.356,3.278.48-.112.368,5.564,2.414,1.471,2.926-.815,2.143.448,2.718,1.311,2.83,2.191,2.75.5.863,2.494,3.47.416,2.206-.5,3.6.815,1.455,1.823,1.583,6.38,2.35,4.861,2.143.3,1.055.08,2.3.5.368,4.237.224,1.183.624,1.711,1.743,1.535,2.878,1.439,1.167,3.63,2.51,2.766.911,10.889,4.269.192.144.272,1.023,1.407.56,4.253,1.263.24.656.767.544.144-.64.544-1.039.64.032.64.783-.16.911-.416,1.023.112,1.039,1.039.016.783-.624.512.656.352.927.911.272.688-1.791,1.023.544.624,1.183-.959,2.047-.927.368-.9.112-.544.752-.144.656,1.407.288.911.032,1.007,1.055.544-.512.4-.9-.1-1.039.16-1.279.272-.512.9.272.48,1.439-.048,2.334-.672,1.023.512.272,1.039-.24.512.4.1,1.039-.288,1.167.112.64,1.3.288,1.951-.592.9.288.24.656-.656.624.224,1.039.5.927-.432,1.535.751,1.311,1.263,1.2.24.783-.416,1.023.512.208,4.429.368,1.023,1.359.064,1.1-.911.975-1.807.959-1.919,2.766-1.071,1.039-.176,5.1-3.31,3.342-.7,1.855-1.327,1.487-1.983,3.006.416,2.478,1.055,1.695.56,1.407-.687.64v2.926l-1.231.656-.624,1.951.368,7.483-1.343,2.111-.128,1.791Z" transform="translate(354.162 98.64)"/><path class="a" d="M662.585,297.849l.608-.192.943-.687,2.734-2.606.927-1.119.3-1.151.016-3.677.272-1.391,1.039-1.983,1.391-1.711.656-1.231,1.327-1.759.608-1.183.64-.576.656-.16.656.128,1.167.528,1.6.416,3.454,1.663,1.263.144,4.941.112,3.374,1.471.624-.1,1.711-1.215,1.935-.815h0l1.455,1.055,2.143,2.206,2.782,5.436,1.359,1.743.815,1.455,2.239,2.526,1.471,3.022.576.656.608.32.943.08.7-.144,1.167-.56.72-.176,4.173-.112,1.407.16.384.224.24.352.336,1.215.528,1.183.432,1.807,2.686,5.372.144,1.231.08,4.829.751,1.871.4,2.558.544,1.167.464,1.791.624,1.407.352,2.334.512,1.151.128.656-.112.64-1.007,1.951-2.286,2.51-1.247,2-2.686,2.67-.464.847-.08.943.144.688,2.59,4.877.176.656-.048,1.151-.656,1.359-.176.688-.032,1.2.176.927,1.983,3.949.416.5.56.384.927.192,2.446.144,2.4.815,4.685.176,1.663.672,1.615.368,1.2.735,2.99,2.862.672.863.08.592-1.359,2.782-.016.9,3.534,6.843.528,1.951h0l-2.414-1.327-1.951-.352-1.391.416-2,1.5-1.423-.1-1.455.416-2.462.032-1.247,1.407-1.567,4.557-1.567.7-2.638,1.871-1.375,1.631-1.823,1.615-5.244,1.055-1.231.72-2.734,3.358-2.462,2.111-2.51,4.061-3.534,5.18-1.775,2.015-2.27,1.375-2.59.735-1.567.592-4.269,3.166-4.109,1.727-2.718.9-1.183.719-1.567-.1-1.455.7-5.852,5.18-.656.959-.352,2.111-1.071,1.855-1.775.192-2-.1-4.269-1.135-.863-.032-1.487.48-.863.048-1.3-.9-2.462-2.174-.8-.192-.975.032-1.375-.208-3.342-1.5-2.4-4.525-.624-.64-.751.1-.576.336-1.087,2.83-.272,1.2.783.991.208.863-1.455,1.279-.368,3.31,3.31,5.628,1.343.672,3.582.927,2.766,1.567,1.183.767.783.927-.256,1.087-3.661.3-1.887-.208-4.573-2.222-1.775-.448-1.375.144-1.439.768-1.535-.608-3.693,1.231h-2.622l-1.487.256-1.759,1.5-2.063.592-1.023-.544-.176-2.111-.56-.592-.847-.352-1.775.064-1.9.656-1.087-.08-1.087-.32-1.055-1.327-.544-1.439-.959-.48-5.724.112-2.047-.624-1.247-.192-.576.384-1.439,3.23-.576,2.8-.416,3.246-.24.911-.7.9-.64.4-1.327.48.016-3.486-.608-1.039-.911.1-2.942.911-4.221,2.206-.687.1-1.183-.416-4.269-.9-1.263.1-2.478.7L581.3,444.6l-1.375.208-1.263-.032-2.27-.847-5.644-3.805-3.534-3.326L560.7,432.78l-1.087-.352-.911.1-1.1.608-.592,1.087-.256,2.334.032.863-.48,1.135-.751.432-1.247-.3-3.693-1.6-3.646-.352-3.837.512-2.111-.5-.624-.528-.735-4.061-.943-1.279L537.535,430l-.64-.24-2.143,2.318-.8.16L532.4,432.2l-1.311-.352-2.3-2.111-1.087.048-.767.847-.3.8.16,1.135,1.215,2.542.224.927-2.079,4.941-.927.9-1.279.831-2.414.719-1.775.144-7.819-.288-3.645-.352-1.6.1-1.775.368-3.054,1.615-1.951.608-1.823.208-2.35.815L493.885,448l-3.07,3.614-.4.064h0l-1.231-4.829-.288-1.631-.608-1.375-.176-.72-.032-6.476-.224-1.487-1.119-2.19-2.254-2.478-.815-1.439-1.327-1.743-.608-1.967-.672-1.647-.112-2.43.256-1.855.528-1.167.592-2,1.039-1.951,1.3-1.679.288-.735.112-1.615-.128-6.044-.719-1.935-.416-2.526-.911-2.015-.879-1.407-.512-.416-.464-.144-3.326-.16-.416-.24-.336-.624-.032-13.415-.224-1.3-.608-1.439-.176-1.6.064-1.663.416-1.455-2.622-1.167-1.791-1.311-1.2-.624-.72-.831-.224-1.007.048-1.023.192-.752.672-1.391.16-1.007-.016-.783-.32-.943-.991-.847-7.467-3.661-1.119-.3-1.183.112-1.183.528-1.823.48-3.454,1.583-3.134.24-2.446.8-15.27-.032-.112-3.342.272-1.5.719-.8,2.99-1.391.672-.576.416-.847.3-2.254.64-1.679.144-1.647-.032-7.227-.144-1.071-.72-1.647-.128-1.567.208-1.007.608-1.407.368-2.27.592-1.423.16-.736.112-9.258.24-.9,1.007-2.574,1.407-.9.624-.24,2.494-.128,1.727.144,1.887.735,2.622.416,1.2.544,1.823.464,1.423.624,2.4.352,1.6.624.688-.048.432-.208.943-.768,7.691-7.547.8-.959.735-1.391,1.423-1.743h0l7.259.08,1.407.112.768.24,2.958,1.455,1.087.208,15.861.144,1.087.208,1.711.656,5.58.192.8.176,1.455.608,2.254.208,2.286-.032,1.087-.192,6.012-2.83,3.853.128,1.471.288,1.839.9,1.263.847,3.07.048,2.35.863,1.967.128,1.647-.3,8.874-4.317,2.238-.592,2.047-.991,1.951-1.5,1.359-.608.592-.128.847.384,1.087,1.039.8,1.023.767,1.455,1.711,1.887,1.311,1.2.9.448,1.551.176,13.431.08,1.551-.144.624-.32.592-.64.528-.991.975-1.3.208-.592-.048-.384-1.055-2.782h0l3.022.32,1.647.672.736.16,3.9.224,1.439.624,1.839.464,1.2.544,1.839.432,1.519.815.464.416.879,1.439,2.718,5.42,1.759,1.855,2.143,1.919,1.551-.112,1.343.064.767.176,1.439.624,1.023.176,1.311.032,1.023-.16.943-.624,1.055-1.727,1.631-2.206.847-.847h0l1.215.224,1.695.512,1.263.719.432.384.144.384-.08.592-1.5,3.661.048.592.5.432.927.128,7.387-.016.959.192,1.647.672,3.166.256,1.231.751L645.3,327l1.679.959,2,1.423,1.263.24h4.845l1.567.16,9.753,4.749,1.3.16,1.583-.064,2.43-.831,3.39-.112,1.215-.256,4.061-1.919,1.455-.863.416-.448.879-1.439.943-2,.384-2.574.672-1.615.384-2.334.592-1.247-.032-.592-.48-.432-.911-.128-2.334.048-1.2.336-.751.768-1.343,2.8-.879,1.151-1.631,1.455-.672.3-.751.128-3.406-.016-1.5-.224-4.045-1.983-1.807-1.327-1.583-.9-.544-.687-.192-.7v-3.566l-.144-1.247-2.047-4.221-.592-.783-.927-.831-2.942-1.519-.272-.336-.16-.624.144-.9.576-.8.943-.8,1.487-.735,1.183-.927,2.174-2.159Z" transform="translate(258.811 166.597)"/><path class="a" d="M655.078,148.255l7.067,1.007,3.9-1.135,5.068-1.151,4.845.48,2.079.991,1.775,1.807,1.9,3.1,3.821,3.789,4.557,6.284,4.685,5.932,1.6,1.615,4.685,3.757,1.279,1.967,1.055,5.884.3.672h0l-.911,1.071-.719,1.407-2.318,2.574-1.631,3.246-1.487,1.951-3.118,6.2.016,1.423.688,1.615.416,1.583.56,1.183.192,1.007.08,8.17-.176,1.439-.624.911-1.775,1.023-3.022,2.75-1.679.9-.783.592-.512.544-.48.863-.144,1.5.128,5.644.208.672,1.519,2.974.368,1.119.72,1.455.384,2.222.624,1.423.128.7v.975l-.272,1.151-2.031,3.949-.831.688-1.807.448-1.439.592-2.638.352-1.2.512-1.583.368-.767.464-.927,1.519-1.343,1.759-.943,1.647-5.372,5.292-.783.975-.256.7-.08.736.064,5.884-.16,1.487-.64,1.071-3.182,3.086-.9,1.215-.48,1.791-.592,1.407-.336,2.35-.736,1.871-.128,5.372-.208.959-.672,1.615-.24,4.125-.624,1.055-2.7,2.654-.352.624-.08.448.208.863,2.526,4.685.719,1.743-.128.751-1.919,3.821-.1.751.432.751,2.207,2.143.767,1.007.975,2,.448,1.823,1.615,3.326-.064.688-.208.416-2.127,2.3-.815,1.407-1.215,1.519-.384.879-.112,1.215.08,1.455.16.7.608,1.407.4,2.159.48.4,1.247.352,1.183.528,2.638.4,1.663.672,3.166.288,2.366.815,3.709.192,1.663.656,1.823.48,1.615,1.247,3.086,3.182L686.113,350l.56,1.663-3.1.384-1.871.72-3.182.224-3.2,1.535-.879.112-1.615-.64-2.622-.4-2.047-.959-1.119-.863-2.766-2.766-1.311-1.055-2.207-1.007-.7.064-.416.192-9.114,8.81,2.526.975,1.775,1.343,1.471.783,1.263,1.215,1.311,2.638.128,1.183v2.862h0l-1.935.815-1.711,1.215-.624.1-3.374-1.471-4.941-.112-1.263-.144-3.454-1.663-1.6-.416-1.167-.528-.656-.128-.656.16-.64.576-.608,1.183-1.327,1.759-.656,1.231L633,371.3l-1.039,1.983-.272,1.391-.016,3.677-.3,1.151-.927,1.119-2.734,2.606-.943.688-.608.192h0l-1.855-.688-2.19-.24-.672-.192-2.223-1.135-2.846-2.7-.943-.7-2.047-.975-1.615-.4-1.311-.592-.608.016-.464.368-.832,1.423-.927,2.015-.416,1.807-1.1,2.159-.624.608-1.391.735-1.615,1.247-1.583.72-.56.128-.576-.16-2.542-1.247-1.183-.176-.911.192-1.455.847-.352.576-.1.975.16,1.007.672,1.391.192.751.032.991-.192.688-.432.48-1.1.608-2.254.56-1.855.975-1.119,1.215-1.071,2.91h0l-.848.847-1.631,2.206-1.055,1.727-.943.624-1.023.16-1.311-.032-1.023-.176-1.439-.624-.767-.176-1.343-.064-1.551.112-2.143-1.919-1.759-1.855-2.718-5.42-.879-1.439-.464-.416-1.519-.815-1.839-.432-1.2-.544-1.839-.464-1.439-.624-3.9-.224-.736-.16-1.647-.672-3.022-.32h0l-.352-.528-.32-1.9-.719-1.663-.128-1.007.048-.751.432-.783,3.981-2.063.32-.272.272-.624.1-1.215-.1-4.733-.192-.991-.687-1.647-.128-2.3.16-1.791,1.055-2.782.544-.4.7-.128,5.756.08,1.6.192,1.615.7.672.064.832-.24,1.039-1.519,1.151-2.718.128-2.127-.112-2.654-.272-.736L563.4,352.53l-.815-1.439-.656-.815-4.589-4.525-1.327-1.6-2.926-5.772-.208-.7-.1-1.039.032-9.05-.224-1.167-.528-.815-.672-.7-4.941-4.685-3.2.112-3.773-.1-.751-.16-1.455-.608-2.334-.352-1.695-.672-3.374-.368-1.935-.736-1.311-.128-1.567.1-1.711.64-1.567.384-.592.32-.592.64-1.439,3.006-1.023,1.583-1.615.991-1.247.56-1.919,1.247.08-6.747-.08-.783-.336-.656-.959-.384-1.695-.016-1.423.176-1.359.544-.624.064-.368-.16-.272-.384-.144-1.471.064-2.8.176-1.583.624-1.423.464-1.791,1.519-2.942.256-.9-.048-1.679-.687-1.631-.208-.975-.064-4.765.24-2.047,1.519-2.926.192-.656-.064-1.167-.735-1.823.1-1.407,1.983-3.965.592-.8.927-.815,2.766-1.455.592-.56.767-1.263.959-2.015.592-2.222.991-1.615,1.855-1.023,2.047-.48,1.279-.719.432-.448.4-2.19.719-1.9.112-1.311-.032-4.013-.224-1.007-.368-.64-1.071-1.343-.687-1.231-1.5-1.951-.991-2.015-.192-.991-.048-6.076.112-1.263.544-.991,1.647-1.007.56-.672.272-1.487-.176-2.079-1.135-2.462-.943-1.775-.416-.528-.72-.512-3.07-1.423-1.375-.927-.336-1.1-.064-2.8-.16-.736-.656-1.695-.1-3.054-.208-.911-.448-.464-1.087-.608-1.823-.576-.3-.288-.224-.847.128-1.391.672-1.407.656-1.951.991-1.215,1.727-.991.608-.624.288-.879.1-2.67.224-.672.911-1.119,1.6-1.519L520.9,200.3l-1.151-1.775-.528-2.015-1.055-1.839-1.647-.975-1.807-.448-.592-.32-.464-.464-.783-1.391-1.231-1.567-1.183-2.478-.128-3.55-.32-.831-.544-.32-2.734-.927-4.173-.1-1.247-.224-1.247-.911-3.166-3.246-.544-.767-1.983-4.029-.384-2.606-.768-2.015h0l4-.9,1.551-1.039.767-.736,1.615-5.724,1.807-3.358,1.807-2.958,1.439-2.031,4.205-2.926,3.9-1.743,4.413-1.631,4-.688,2.814.048,6.2.863,2.446.112,1.535-.448,2.126-.959,2.079-1.247,3.981-3.262,3.326-2.174,3.262-1.455,2.814-.592,3.23.112,14.966,1.887,4.941-.5,3.118-.8,3.182-.352,4.717,1.1,1.919.911,1.791,1.1,1.135,1.487,1.487,1.439,1.263,1.551,3.6,19.587,1.231,2.718,1.023.9,1.791,1.1,1.807.208,1.119-.144,2.782-1.647,3.725-8.986,2.67-8.89,3.6-5.964,1.695-2.366,1.695-1.887,1.727-1.375,2.542-.751,2.7-.528,4.061-.192,5.18,1.071,3.038,1.007,4.653,3.757,7.419,7.339Z" transform="translate(295.241 80.337)"/><path class="a" d="M466.161,117.581l.56.032,2.414-.64,1.935-.815,3.757-.208,4.877.384,6.875.911,4.557,1.983,1.519,1.471,1.695,1.183,2.111.608,4.941.336,1.583.24,1.807.544,3.038,1.727,3.853,3.15,1.215,1.183.7,1.407.735,2.654.815,1.183,1.5,1.183,1.519,1.487,2.318,3.006.927.416,1.055.24,2.83-.783,1.807.368,1.695.656,1.983,1.6,1.679,2.366,2.67,1.967,9.753,3.965,3.15,1.967,1.551,2.015.863,1.759.272,1.759-.256,2.574-6.955,13.878-2.174,1.9-1.247.815-1.231.448-.9,1.391-.831.991-.416.815-.128.943.224,2.047,5.644,8.426,1.679,1.759,1.1.08.943-.112,3.63-1.423,1.167-.16,1.231.192,2.7,3.534,1.455.48,1.407-.448,1.551-1.5,1.343-.336,1.167.416,2.254,2.366,1.167.192,2.047.016,2.942,1.231h0l.192,1.519.608,1.423.416,1.583.624,1.391.128.7-.128,1.167-.672,1.615-.288,2.143-.592,1.423-.48,1.791-.7.815-3.246,1.6-2,1.471-5.1,2.43-1.631.975-1.071,1.823-.288,2.382-.192.672-.72,1.3-.416.464-1.695.911-2.638.336-1.423.608-1.615.384-1.951.736-5.548.128-.815.16-1.471.592-1.119.144-11.88.016-.7.144-1.455.592-2.59.4-1.2.528-1.6.384-1.695.656-2.606.352-1.471.8-.528.688-.3,1.951-.592,1.439-.16.751.016,3.294h0l-2.558-.24-1.9-.736-2.59-.416-9.066-4.557-.991-.256-1.839.1-1.695.688-2.59.4-1.215.528-1.823.464-1.439.624-1.3.144-2.079-.176-1.951-.751-3.118-.3-1.663-.688-1.6-.4-1.2-.56-1.3-.224-9.641-.016-1.023.176-1.663.656-2.238.256-3.118-.208-2.91.016-.911.4-.208.336-.144.7-1.631,1.535-6.763,3.406-.56.656-1.375,2.83-1.023,1.3-2.51,2.318-1.439.751-1.807,1.375-2.223,1.071-2.862.416-1.935,1.2-1.455-.4-1.743-.032-.943.176-1.647.672-3.166.24-.847.464-1.9,1.743-.384.176h-.448l-.735-.448-1.759-1.647-1.839-1.071-2.4-2.111-4.045-2.047-1.151-.272-4.509.016-.672-.08-.576-.288-.24-.352-.336-1.231-.608-1.407-.272-4.4-.608-1.423-.464-1.807-.879-1.2-8.49-8.346L378,230.863l-2.031-1.455-2.27-.7-.1-.256-.272-.16-2.414-.448-.432-.272-1.055-1.087-.879-1.567-.3-.288-3.566-1.439-.672-.048-.783.256-.32.576-.672,1.967-.5,2.542-.352.4-.416.176-1.711.256-1.967.72h-1.583l-.991-.272-.368-.256-2.031-1.855-.831-.48-2.4-.336-1.871-.783L345.284,226l-.672.272-.5.448-1.711,3.358-1.007.847-1.823.847-1.839.432-1.2.528-1.823.464-1.423.608-1.9.144-2.031-.256.192-2.27-.048-4.685-.3-.959-1.439-1.967-.272-1.5.128-2.846.7-1.663.192-.736.016-2.35-.448-1.2-2.047-2.43h0l-1.311-2.318-.448-2.83-2-4.029-1.5-1.967-1.647-3.278-1.375-1.759-.656-1.263-1.375-1.759-.64-1.247-2.43-2.782-1.183-2.446-.144-1.5-.016-6.428.24-1.727.544-.831.735-.688,1.839-.991,2.015-1.439-1.743-1.679-1.007-1.791-2.111-2.4-.879-1.631-1.3-1.3-5.292-2.638-1.983-1.535-2.015-1.023-2.047-.544-1.439-.624-2.622-.384-2.766-1.631-4.093-3.805-1.423-.751-1.807-1.407-3.646-1.855-1.1-1.183-1.119-1.967-1.679-1.519,1.183-1.935,4.269-8.666.528-.719.544-.384,1.023-.208h7.131l.768-.16,1.439-.592,2.846-.192.943-.3.64-.576,2.063-3.2.416-2.59.576-1.455.24-1.727.352-.847.384-.24.959-.16,4.029.1,1.3.224,7.5,3.725,1.567.16,7.179.064.943.192,1.663.672,3.166.288,2.271,1.039,5,2.59,1.183.288,6.731.064,1.215.24,1.407.624,1.423.032,4.477-2.175,2.782-2.4,1.247-.656,1.535-1.2.9-.272.847.208,4.8,2.462,1.823.464,1.439.608,2.622.4,2.031.975,1.167.911,3.166,3.2.64.464.7.24,1.183-.048,1.407-.592.783-.176,3.566-.176,2.494-.815,9.849-.032,1.071-.144,1.951-.767,1.519-.032.815.416.863,1.455.176.688.192,2.174.847,1.727.688.5,1.1.016,1.407-.624,1.6-.4.672-.32,1.567-1.391.911-1.247.224-1.695-.08-9.625.08-.751.32-.64.352-.224,4.061-1.375,1.023-1.583.592-2.238.879-1.839.592-.8,1.119-.959,1.631-.879,2.91-2.75,1.967-1.1,1.727-1.6,1.087.815,1.5.767h0l.72.624,2.3.656,10.857,2.558,11.08,5.228,1.695,1.775,2.574,1.183Z" transform="translate(165.513 62.053)"/><path class="a" d="M470.4,267.757l1.695-.176,1.935-.735,1.055-.064,1.055.128,3.693,1.743,3.63.176,1.007.224.847.56,1.727,1.567.656.4.752.192,2.079.112,1.023.176,4.045,1.935.656.576.4.863.016,4,.224,1.279.4.64.688.7,2.286,1.327,1.167,1.279.24.72.256,2.047.56,1.455.288,1.919.3.608.624.32.719.08,9.577-.016-.112,1.823.1,1.583.688,1.935.256,1.663.16.416.32.32.815.224,3.422.144,2.254,1.023,1.023.768,3.55,3.454,1.135.544,4.669.112,1.279-.1.688-.208,3.342-1.679,7.451.032,2.143.24,1.423.608,1.6.416,1.215.528,1.823.464,2.3,1.039,1.375.863.272.352.24,1.2-.224,4.221h0l-1.423,1.743-.735,1.391-.8.959-7.691,7.547-.943.768-.432.208-.687.048-1.6-.624-2.4-.352-1.423-.624-1.823-.464-1.2-.544-2.622-.416-1.887-.735-1.727-.144-2.494.128-.624.24-1.407.9-1.007,2.574-.24.9-.112,9.258-.16.736-.592,1.423-.368,2.27-.608,1.407-.208,1.007.128,1.567.72,1.647.144,1.071.032,7.227-.144,1.647-.64,1.679-.3,2.254-.416.847-.672.576-2.99,1.391-.72.8-.272,1.5.112,3.342,15.27.032,2.446-.8,3.134-.24,3.454-1.583,1.823-.48,1.183-.528,1.183-.112,1.119.3,7.467,3.661.991.847.32.943.016.783-.16,1.007-.672,1.391-.192.752-.048,1.023.224,1.007.72.831,1.2.624,1.791,1.311,2.622,1.167-.416,1.455-.064,1.663.176,1.6.608,1.439.224,1.3.032,13.415.336.624.416.24,3.326.16.464.144.512.416.879,1.407.911,2.015.416,2.526.72,1.935.128,6.044-.112,1.615-.288.735-1.3,1.679-1.039,1.951-.592,2-.528,1.167-.256,1.855.112,2.43.672,1.647.608,1.967,1.327,1.743.815,1.439,2.254,2.478,1.119,2.19.224,1.487.032,6.476.176.72.608,1.375.288,1.631,1.231,4.829h0l-.687.1-2.047-.368-3.629-1.935-8.81.176-2.51.208-6.22-.592-1.663.208-4.077,1.791-6.38,4.381-2.286.9-1.327,1.071-.879,1.359L531.6,469.4l-1.087.5-2.846-.544-2.51-1.327-1.919-.7L520.57,465l-3.118-1.743-1.6.16-2.766,1.855-2.974,1.183-4.4-.048-2.382-1.615-2.159-2.015-2.782-1.855-1.695-.464-2.286-.128-2.286.256-7.163,3.5L482.5,465.43l-1.039.16-2.606-.16-1.535-2.942-.608-2.814-.783-2.111-.847-1.551-2.606-3.038-2.446-.991-3.6-1.215-1.311-.815-2.67-2.015-1.775-.576-1.759-.128-1.887.272-7.1,2.079-8.186,2.83-4.973,1.055-4.061.336,1.327-2.8-.336-1.375-6.348-13.687-1.135-1.151-1.263-.4-1.775-.24-1.423.512-2.862,1.759-4.125-1.039-1.423-1.087.8-.863,2.35-1.359,1.951-.847,1.6-.464,2.926-1.711,2.462-2.51,1.615-1.071.112-.752.751-.576.352-.672-.112-.751-.64-.8-1.423-.751-1.263-.464L423,420.421l-1.6.1-1.263-.336-.911-1.263-4.813-.592-.959-1.551-3.486-6.476-.847-1.151-6.651-3.566-3.6-.24-2.015-1.311-2.222-.815-1.551-2.286-1.311-2.478-3.038-2.462L388,394.662l.048-1.487-1.087-2.127-1.375-1.023-.624-.687v-3.166l-.736-1.311-4.653-1.679L377,379.569l-5.053-2.063-.4-.975.16-1.839-.224-1.791-1.263-1.135-3.677.224-1.839.927-.911,3.789-.975,2.174-.8.64-.927.048-1.087-.847-1.039-1.151-.975-.687-1.487-.352-2.478-2,.064-1.439-.512-1.2-2.43-2.3-.16-1.039.8-2.174,1.311-.927,1.391-.464,1.663-1.311-.464-5.468.4-.688,2.238-1.151,1.2-1.439-.464-3.054-1.311-1.263-6.8-.16-.783.959-.416.815-.64.815-.687-.176-1.375-.975-1.839-.4L340.9,349.03l-1.263-.048-2.255-.688-2.462-.224-5.74.176-6.508,1.919-.975.128-1.9.64-1.263.576-2.686-.384-.927.512-1.023,1.887-1.439.959h0l-1.311-4.3-.768-2.095-.56-1.151-.3-2.318-.384-.9-.608-.751-3.55-3.534-1.983-3.821-1.359-1.2-3.07-1.455-.672-.56-.751-1.359-2.414-2.766-2.206-4.429-.288-1.327-.656-1.359-.224-.927.08-2.4.528-1.087,2.718-2.686.624-1.023.176-1.3-.032-5.468-.048-1.039-.192-.72-2.606-5.132-.448-1.855h0l3.693-.16.5-.08,1.183-.544,1.039-.224h3.55l.8.1.735.288,2.318,2.047,1.135.5h1.167l1.695-.656,1.967-.3.56-.352.863-1.391.208-.7.288-2.3.943-2.015.783-1.023,1.3-1.231.911-.56.975-.208,5.1.048h0l3.246,3.326,1.135,1.935,1.023.752,2.063-.032,1.2.144,3.677,1.695,1.615.224,1.935.032,2.111-.256.672-.4,2.494-2.382,1.039-.783,6-2.862,1.119-.24h3.55l1.071.16,3.23,1.567.991.256,1.343.1,4.989-.048,1.327.128.7.208,4.813,2.43.432.144,1.615.16,2.27-.1,2.111-2.095.64-.432.736-.24,2.846-.208,1.711-.624,1.007-.176,5.133-.08,2.718-.847,6.364-.08,2.478-.8,2.382-.208,1.1-.24,2.063,1.167,2.382,1.1,2.526-1.087L427,284.578l1.823-.416,1.423-.624,1.615-.352,1.2-.544,1.839-.432,1.2-.544,1.839-.432,1.2-.544,2.382-.3.672-.192,4.061-1.967,2.574-2.238,2.238-1.119.672-.192,2.159-.24,1.647-.64,2.622-.384,1.023-.687,2.782-2.606,2.238-1.135.672-.192,2.159-.24,1.647-.656Z" transform="translate(174.341 159.626)"/><path class="a" d="M547.446,155.1l.768,2.015.384,2.606,1.983,4.029.544.767,3.166,3.246,1.247.911,1.247.224,4.173.1,2.734.927.544.32.32.831.128,3.55,1.183,2.478,1.231,1.567.783,1.391.464.464.592.32,1.807.448,1.647.975,1.055,1.839.528,2.015,1.151,1.775-1.695,1.359-1.6,1.519-.911,1.119-.224.672-.1,2.67-.288.879-.608.624-1.727.991-.991,1.215-.656,1.951-.672,1.407-.128,1.391.224.847.3.288,1.823.576,1.087.608.448.464.208.911.1,3.054.656,1.695.16.736.064,2.8.336,1.1,1.375.927,3.07,1.423.72.512.416.528.943,1.775,1.135,2.462.176,2.079-.272,1.487-.56.672-1.647,1.007-.544.991-.112,1.263.048,6.076.192.991.991,2.015,1.5,1.951.688,1.231,1.071,1.343.368.64.224,1.007.032,4.013-.112,1.311-.72,1.9-.4,2.191-.432.448-1.279.719-2.047.48-1.855,1.023-.991,1.615-.592,2.222-.959,2.015-.767,1.263-.592.56-2.766,1.455-.927.815-.592.8-1.983,3.965-.1,1.407.735,1.823.064,1.167-.192.656-1.519,2.926-.24,2.047.064,4.765.208.975.688,1.631.048,1.679-.256.9-1.519,2.942-.464,1.791-.624,1.423-.176,1.583-.064,2.8.144,1.471.272.384.368.16.624-.064,1.359-.544,1.423-.176,1.695.016.959.384.336.656.08.784-.08,6.747,1.919-1.247,1.247-.56,1.615-.991,1.023-1.583,1.439-3.006.592-.64.592-.32,1.567-.384,1.711-.64,1.567-.1,1.311.128,1.935.735,3.374.368,1.695.672,2.334.352,1.455.608.751.16,3.773.1,3.2-.112,4.941,4.685.672.7.528.815.224,1.167-.032,9.05.1,1.039.208.7,2.926,5.772,1.327,1.6,4.589,4.525.655.815.815,1.439,2.206,2.526.272.735.112,2.654-.128,2.127-1.151,2.718-1.039,1.519-.831.24-.672-.064-1.615-.7-1.6-.192-5.756-.08-.7.128-.544.4-1.055,2.782-.16,1.791.128,2.3.688,1.647.192.991.1,4.733-.1,1.215-.272.624-.32.272-3.981,2.063-.432.783-.048.752.128,1.007.72,1.663.32,1.9.352.528h0l1.055,2.782.048.384-.208.592-.975,1.3-.528.991-.592.64-.624.32-1.551.144-13.431-.08-1.551-.176-.9-.448-1.311-1.2-1.711-1.887-.767-1.455-.8-1.023-1.087-1.039-.847-.384-.592.128-1.359.608-1.951,1.5-2.047.991-2.238.592-8.874,4.317-1.647.3-1.967-.128-2.35-.863-3.07-.048L549.3,383.2l-1.839-.9-1.471-.288-3.853-.128-6.012,2.83-1.087.192-2.286.032-2.254-.208-1.455-.608-.8-.176-5.58-.192-1.711-.656-1.087-.208L504,382.754l-1.087-.208-2.958-1.455-.768-.24-1.407-.112-7.259-.08h0l.224-4.221-.24-1.2-.272-.352-1.375-.863-2.3-1.039-1.823-.464-1.215-.528-1.6-.416-1.423-.608-2.143-.24-7.451-.032-3.342,1.679-.688.208-1.279.1-4.669-.112-1.135-.544-3.55-3.454-1.023-.767-2.254-1.023-3.422-.144-.815-.224-.32-.32-.16-.416-.256-1.663-.688-1.935-.1-1.583.112-1.823-9.577.016-.719-.08-.624-.32-.3-.608-.288-1.919-.56-1.455-.256-2.047-.24-.72-1.167-1.279-2.286-1.327-.687-.7-.4-.64-.224-1.279-.016-4-.4-.863-.656-.576-4.045-1.935-1.023-.176-2.079-.112-.751-.192-.656-.4-1.727-1.567-.847-.56-1.007-.224-3.63-.176L409.46,333.8l-1.055-.128-1.055.064-1.935.735-1.695.176h0l-.176-1.679-.751-1.887-.112-1.807.208-1.519,1.007-1.983.975-1.215,1.935-1.855.831-.624,1.487-.8,3.166-2.83,1.807-1.055.64-.911.16-1.535-.032-13.671.208-1.263.608-1.407.176-1.663,1.1-.8,6.923-3.294,1.391-1.167,1.167-1.951,2.271-2.542,1.023-2,.528-2,.624-1.407.368-2.59.56-1.167.432-1.823.975-1.983.943-.911,3.853-1.871.208-2.7.672-1.631.208-.959.032-5.372-.144-1.231-.64-1.423-.48-1.791-.576-1.167-.128-1.167.128-.688.64-1.391.384-1.6,1.1-2.159.815-.736L443.1,246.1l1.039-.751,1.6-1.695.783-1.487.64-.8,1.1-1.119.831-.608,1.231-.3,4.349.048,1.311-.16.688-.32,1.759-1.311,2.031-.975,2.59-.384,1.679-.656,2.015-.384-.544-1.663-.656-1.407-.128-.959.064-1.2.224-.656,1.519-2.958.448-1.807.576-1.183.464-1.807.56-1.167.16-.927-.144-.943-.959-2.015-.991-1.647-.464-.416-1.311-.736-.943-.256-2.382-.08-1.551.16-2.478,1.167-2.974,2.494-3.821,1.9-1.151.208-.943-.16-1.647-.687-4.685-.208-.735-.16-1.423-.608-2.606-.416-1.231-.863-2.846-2.814h0l-.016-3.294.16-.751.592-1.439.3-1.951.528-.688,1.471-.8,2.606-.352,1.695-.656,1.6-.384,1.2-.528,2.59-.4,1.455-.592.7-.144,11.88-.016,1.119-.144,1.471-.592.815-.16,5.548-.128,1.951-.736,1.615-.384,1.423-.608,2.638-.336,1.695-.911.416-.464.72-1.3.192-.672.288-2.382,1.071-1.823,1.631-.975,5.1-2.43,2-1.471,3.246-1.6.7-.815.48-1.791.592-1.423.288-2.143.672-1.615.128-1.167-.128-.7-.624-1.391-.416-1.583-.608-1.423-.192-1.519h0l4.269,1.311,3.182,1.631,1.471.016,2.878-.847,1.823-1.663,1.727-2.031,4.973-4.957,1.839-1.615,1.647-.8,4.781.592,5.052-1.567,3.246-1.311,1.759-.256,1.231.064,2.782,1.1,2.7-.256,1.823-.608,2.063-1.375,1.119-.512Z" transform="translate(241.017 92.741)"/><path class="a" d="M197.492,321.44l.831.288.16.352.528.288v-.352h.831l.576.56v.352l-.048.288.368.7v.144l-.32.208-.736,1.759-.991.911-.576-.064-.048-.144v-1.695l-.208-.847v-.64l-.208-.5-.256-.5-.16-.56v-.416l.256-.144ZM352.282,60.723l-.5.847-.224,1.071.3,1.119.592.64.879.352,1.535.288,1.647.112,3.789,1.583,3.837,1.215,3.2,1.631,2.958,1.935,3.07,1.343,2.254,1.3,2.015,1.823,1.775.943,2.894.7,2.366.991,2.015,1.759,5.724,2.75,3.182.815.592-.416.24-1.071-.24-1.359-2.318-5.132.352-1.247.831-.3,2.654.464,1.471.048,2.366-.959,1.823-.176,7.787-2.318,2.782-.064,2.127.416,1.183.879,1.247.656,1.071,1.007,1.647.24,4.189-1.007,4.189,1.471,5.612.352.528,1.055L435.9,78.6l.528,1.471.768.767,1.3.7,2.478,1.007L442.38,83.6l.176,1.247-.592,2.766-.656,1.887h2.3l2.127.24,3.773.528,3.182.656,3.07,1.359,2.942,1.887,2.766,1.071,1.231.656.176.943-.943,1.887-.943,1.359-1.007,1.887.112,2.526.352,1.887,1.759,2.942,1.231,1.711,3.294,3.118,10.041,6.907,10.329,9.386,1.823,1.887,1.519,2.654.512.448h0l-1.5-.767-1.1-.815-1.727,1.583-1.983,1.119-2.91,2.75-1.631.879-1.119.959-.592.8-.879,1.839-.592,2.238-1.023,1.583-4.077,1.375-.352.24-.32.64-.08.751.1,9.625-.24,1.695-.911,1.247-1.567,1.375-.672.336-1.6.4-1.391.624h-1.119l-.672-.512-.847-1.727-.192-2.174-.192-.672-.863-1.455-.815-.416-1.519.032-1.951.767-1.087.16-9.833.016-2.494.815-3.566.176-.767.176-1.407.608-1.183.048-.7-.24-.64-.464-3.166-3.2-1.167-.911-2.031-.975-2.622-.384-1.439-.624-1.839-.464-4.781-2.462-.863-.208-.9.272-1.535,1.2-1.247.672-2.8,2.382-4.461,2.175-1.423-.016-1.407-.64-1.215-.224-6.731-.08-1.183-.288-4.989-2.59-2.271-1.039-3.166-.288-1.647-.672-.943-.192-7.2-.064-1.567-.16-7.483-3.725-1.3-.224-4.045-.08-.943.144-.4.24-.352.847-.24,1.727-.56,1.471-.416,2.59-2.063,3.2-.656.592-.943.288-2.846.192-1.439.592-.768.16H340.77l-1.023.224-.56.384-.528.719-4.269,8.666-1.183,1.935,1.679,1.535,1.1,1.967,1.1,1.167,3.646,1.855,1.791,1.407,1.423.736,4.109,3.821,2.766,1.631,2.622.384,1.423.624,2.047.528,2.015,1.023,1.983,1.535,5.292,2.638,1.3,1.311.879,1.631,2.111,2.4,1.023,1.791,1.743,1.679-2.015,1.439-1.839.991-.735.688-.56.831-.224,1.727.016,6.428.144,1.487,1.183,2.462,2.414,2.766.64,1.247,1.359,1.759.656,1.247,1.375,1.759,1.647,3.278,1.5,1.967,1.983,4.029.464,2.83,1.3,2.334h0l-2.734-.272-2.286.112-.9.384-1.567,1.167-1.247.336-7.355-.08-1.535.24-.544.384-.416.512-1.343,2.83-.576.8-.927.831-1.887,1.023-1.167,1.279-.3.975.016,4.813-.24,1.263-.384.544-.512.4-3.038,1.407-.608.624-.256.656-.1,1.231.08,10.7-.1.975-.256.688-.608.783-2.51,2.526-1.071,1.839-1.183,1.311-3.5,3.406-.783.608-1.663.9L339,288.407l-4.669,9.21-1.5,1.951-1.647,3.23-1.695,2.143-1.647,2.526-1.711,3.23.336,1.2.128,1.631-.016,1.583-.256.911-.544.432-2.19.32-2.382.767-.544.464-.144.959.751,1.887.192,1.375.016,17.94L321.3,342.1l-.72,1.967-.16,2.462-.208.783-.288.448-.592.512-1.023.56-1.519,1.1-.752.32-1.343-.016-1.439-.608-.783-.176-1.1-.016-1.439.24h0l-.56-1.519-.48-.672-1.679-.927-1.6-.384-1.439-.672L302.4,345.3l-8.426-.112-.751-.144-1.215-.56-2.606-.368-1.471-.959-4.621-4.637-1.311-1.039-1.711-.448-1.423-.608-2.606-.416-1.471-.608L272.1,335l-2.318-1.263-3.869.656-1.215.528-1.071.192-9.066-.016-1.055.32-2.942,1.375-2.83.5-1.471.56-3.518.4-2.254.656-.943.112L226.7,338.9l-1.007.16-1.439.56-2.159.3-.672.208-.927.576h0l-.32-.783-.576-.416-1.055-.5-.736-.288-.256-.144-1.311-.208-.16.064-.624.064-.9.208h-1.311l-1.1.144-.48-.064-.783-.288-.208-.288-.32-.064-.16.208-.528.144h-.736l-.256.208.112.911.416.208.783,1.263h.32l.048.7-.256.352.32,1.2.256,1.263.208,1.407.528,1.263.464.847.208.416.048.64-.32.7-.368.352-.208.208-.208.144-.624.208h-.368l-.208-.144-.416-.56-.112-.352-1.839-2.526-.943-.847-.416-1.119-.688-.7-1.151-1.695-.32-.5-.783-1.055-.576-.5-.368-.7-.256-2.75-.368-.7-.208-.144-1.1-.208.256-.288.208-.416.288-.208.4-.064-.048-.352-.688.144.112-.352.368-.352.576-.064.16-.208-.112-.416-.688-.208.112-1.263-.464-1.2-.528-.911-1.1-1.551.112-.7.528-1.263.831-.991.208-.64.528-.7.368-.208.208.144h.32l.16-.144.576.064.048-.208-1.519-.5-.943-1.2-.991-.5-.831-.064-.32-.416-.256-.288-.687-.416-.32-.208v-.5l.416-.144.688-.991.736-2.19.256-4.029-.736-5.292-.272-1.2-1.039-3.1-.736-3.182-.688-2.606-1.1-3.39-1.055-2.974-.624-2.4-.943-2.622-.208-.991-.32-.991-.576-.847-.783-1.9-.464-1.631-.9-.352-1.423-1.407-1.471-.7-.943-.783-.831-.432-.576-.288.208-.991v-.783l.32-.783.256-.847.624-.064.576-.144h1.359l.576-.144.576-.208-.112-.56-.32.064-.368.064-.368.352-.368.144-1.2-.144H185l-.943.5-.416,1.2-.256.352-.16.7.112.847h-.208l-.112-.144-.256-.7-.048-.64-.687-2.414h0l3.917-2.127,4.909-2.286,4.637-2.35,1.2-1.375.528-1.071.528-.72,3.6-3.677,1.279-2.079.8-.863.72-.512,2.27-1.007,1.423-.3,1.391-.56,2.99-.464,12.008-5.852,1.663-1.279,1.631-.879,2.8-2.35,1.583-.863,1.631-1.231,1.439-.767,2.782-2.75,1.359-2.19,3.9-4,.9-1.631,2.494-2.894,1.423-2.91,1.775-2.19,3.2-1.071,1.791-.943.959-1.071.416-1.615.592-1.439.416-2.606.608-1.535.128-.911.032-4.061-.16-1.151-.48-1.007-1.055-1.359-.831-1.5-3.773-3.885-.64-1.071L250.384,193l-.624-1.423-.16-1.855-.048-11.064-.144-.767-.56-1.167-.144-.783-.192-4.6-.911-2.558v-1.039l-2.3-2.3-.272-.767.272-.719,1.039-1.343.656-1.215,1.135-1.183,2.606-1.3,1.663-.624,1.055-1.439,1.087-2.35.112-1.071-.272-.815-1.391-1.439-.272-.927-.128-2.862-.24-.735-.64-.767-.943-.464-.656-.672-.448-1.087v-6.044l.224-1.023.64-1.455.144-1.007-.256-1.183-.736-.432-2.974-.064-.672-.16-.352-.272-.943-1.647-.288-2.095-.624-1.695-.1-.879.336-.688.56-.512,3.933-1.823.879-.208,2.894-.224,1.679-.624,2.814-.512,5.26-2.526,3.134-.272,2.462-.8,3.55-.08,1.359-.16,1.519-.544,1.919-.272.656-.288.384-.448.751-1.5.224-1.919.272-.975.863-1.807.528-.767.831-.767,1.807-1.023,1.5-1.279,2.654-2.734.4-.624,3.054-6.284.32-1.423,1.6-3.31.432-2.7.752-1.839-.144-1.535-1.775-3.614.016-6.428.208-.991,1.631-3.454.416-1.6,1.551-3.2.48-1.871.544-1.215h0l.08-.288,4.861.751,1.183-.24,4.813-3.054,1.535-.016,1.951.4,1.775.64,1.487,1.1,2.862,2.99,1.775.288,2.83.16,1.583-.783,2.638-2.8,1.359-1.071,1.247-.016,3.022.448,1.055-.3.592-.767.528-1.6.592-1.007.7-.48,1.359-.368,5.26-.512,2.127-.608,3.949-1.919,1.951-.064,1.119.464,2.606,1.759,1.6,1.407.3,1.247-1.183.767-1.007.9-.256.432Z" transform="translate(108.869 32.042)"/><path class="a" d="M551.4,309.61l1.071-2.91,1.119-1.215,1.855-.975,2.255-.56,1.1-.608.432-.48.192-.687-.032-.991-.192-.751-.672-1.391-.16-1.007.1-.975.352-.576,1.455-.847.911-.192,1.183.176,2.542,1.247.576.16.56-.128,1.583-.72,1.615-1.247,1.391-.736.624-.608,1.1-2.159.416-1.807.927-2.015.831-1.423.464-.368.608-.016,1.311.592,1.615.4,2.047.975.943.7,2.846,2.7,2.223,1.135.672.192,2.191.24,1.855.688h0l-1.119,1.695-2.174,2.159-1.183.927-1.487.735-.943.8-.576.8-.144.9.16.624.272.336,2.942,1.519.927.831.592.783,2.047,4.221.144,1.247v3.566l.192.7.544.688,1.583.9,1.807,1.327,4.045,1.983,1.5.224,3.406.016.751-.128.672-.3,1.631-1.455.879-1.151,1.343-2.8.751-.767,1.2-.336,2.334-.048.911.128.48.432.032.592-.592,1.247-.384,2.334-.672,1.615-.384,2.574-.943,2-.879,1.439-.416.448-1.455.863L605.045,329l-1.215.256-3.39.112-2.43.831-1.583.064-1.3-.16-9.753-4.749-1.567-.16h-4.845l-1.263-.24-2-1.423-1.679-.959-3.6-3.486-1.231-.751-3.166-.256-1.647-.672-.959-.192-7.387.016-.927-.128-.5-.432-.048-.592,1.5-3.661.08-.592-.144-.384-.432-.384-1.263-.72-1.695-.512Z" transform="translate(330.086 171.017)"/></g></svg>